<?xml version="1.0" encoding="utf-8"?>
<!-- Generator: Adobe Illustrator 19.0.0, SVG Export Plug-In . SVG Version: 6.00 Build 0)  -->
<svg version="1.1" id="Layer_1" xmlns="http://www.w3.org/2000/svg" xmlns:xlink="http://www.w3.org/1999/xlink" x="0px" y="0px"
	 viewBox="-51 176.2 407.3 160.8" style="enable-background:new -51 176.2 407.3 160.8;" xml:space="preserve">
<style type="text/css">
	.st0{fill:#FFFFFF;}
</style>
<title>PoweredByRectangle_Blue</title>
<polygon class="st0" points="-0.6,278.7 6.3,278.7 6.3,250.9 15,250.9 15,244 -9.3,244 -9.3,250.9 -0.6,250.9 "/>
<polygon class="st0" points="37.5,278.7 44.5,278.7 44.5,244 37.5,244 37.5,257.8 27.1,257.8 27.1,244 20.2,244 20.2,278.7 
	27.1,278.7 27.1,264.8 37.5,264.8 "/>
<polygon class="st0" points="70.3,271.7 57.2,271.7 57.2,264.8 68.3,264.8 68.3,257.8 57.2,257.8 57.2,250.9 69.7,250.9 69.7,244 
	50.3,244 50.3,278.7 70.3,278.7 "/>
<polygon class="st0" points="106.8,258.7 93.1,243.5 90.9,243.5 90.9,278.7 97.9,278.7 97.9,259.4 106.8,268.7 115.7,259.4 
	115.6,278.7 122.7,278.7 122.7,243.5 120.5,243.5 "/>
<path class="st0" d="M146.2,243.4c-23.9,0-23.9,35.8,0,35.8S170.1,243.4,146.2,243.4z M146.2,272c-13.9,0-13.9-21.4,0-21.4
	S160.1,272,146.2,272z"/>
<rect x="203.5" y="244" class="st0" width="6.9" height="34.7"/>
<polygon class="st0" points="223.2,271.8 223.2,264.9 234.3,264.9 234.3,257.9 223.2,257.9 223.2,251 235.6,251 235.6,244 
	216.3,244 216.3,278.7 236.2,278.7 236.2,271.8 "/>
<path class="st0" d="M266.6,244.4h-10.3v34.7h10.3C289.7,279.1,289.7,244.4,266.6,244.4z M266.6,272.2h-3.4v-20.8h3.4
	C280.1,251.4,280.1,272.2,266.6,272.2z"/>
<path class="st0" d="M309.8,261.7c2.2-1.5,3.1-4.2,3.2-6.8c0.1-6.1-3.7-10.5-9.9-10.5h-13.7v34.8h13.7c5.7,0,10.3-4.7,10.2-10.4
	c0,0,0,0,0,0C313.3,265.9,312,263.3,309.8,261.7z M296.4,251.3h6.2c1.9,0.1,3.4,1.8,3.2,3.8c-0.1,1.7-1.5,3.1-3.2,3.2h-6.2V251.3z
	 M302.5,272.2h-6.2v-6.9h6.2c1.9,0,3.4,1.4,3.5,3.3c0,0,0,0.1,0,0.1C306.1,270.6,304.5,272.2,302.5,272.2
	C302.6,272.2,302.6,272.2,302.5,272.2L302.5,272.2z"/>
<polygon class="st0" points="182.1,262.8 173,244 165,244 181.4,279.5 182.9,279.5 199.3,244 191.3,244 "/>
<path class="st0" d="M331.9,322.4c14.6,0,24.5-9.9,24.5-24.5v-97.3c0-14.6-9.9-24.5-24.5-24.5H-26.5c-14.6,0-24.5,9.9-24.5,24.5V337
	l12.6-14.6l0,0V200.7c0-6.6,5.3-11.9,11.9-11.9h358.4c6.6,0,11.9,5.3,11.9,11.9V298c0,6.6-5.3,11.9-11.9,11.9H-7.9l-12.6,12.6
	l-0.1-0.1L331.9,322.4z"/>
<path class="st0" d="M-8.6,229v-15h5.9c5.8,0,5.8,9.3,0,9.3h-2.9v5.7L-8.6,229L-8.6,229z M-3,220.4c2,0,2-3.4,0-3.4h-2.6v3.4H-3z"/>
<path class="st0" d="M13.1,213.8c10.3,0,10.3,15.5,0,15.5S2.8,213.8,13.1,213.8z M13.1,216.9c-6,0-6,9.3,0,9.3
	S19.2,216.9,13.1,216.9L13.1,216.9z"/>
<path class="st0" d="M30.2,229.4L24,214h3.4l3,7.7l2.9-7.5h0.1l2.9,7.5l3-7.7h3.4l-6.1,15.3h-0.6l-2.8-6.7l-2.7,6.7L30.2,229.4
	L30.2,229.4z"/>
<path class="st0" d="M46.6,229v-15h7.5v3h-4.5v3h3.9v3h-3.9v3h4.8v3H46.6L46.6,229z"/>
<path class="st0" d="M66.5,229l-3-5.7h-1.5v5.7h-3v-15H65c5.4,0,5.9,7.5,1.5,8.8l3.5,6.2L66.5,229L66.5,229z M62.1,220.4h2.6
	c2,0,2-3.4,0-3.4h-2.6V220.4z"/>
<path class="st0" d="M73.8,229v-15h7.5v3h-4.5v3h3.9v3h-3.9v3h4.8v3H73.8L73.8,229z"/>
<path class="st0" d="M90.8,229h-4.5v-15h4.5C100.8,214,100.8,229,90.8,229z M89.3,217v9h1.5c5.8,0,5.8-9,0-9H89.3z"/>
<path class="st0" d="M129,222.3l-5.2-8.3h3.6l3.1,5.2l3.1-5.2h3.7l-5.3,8.3v6.8h-3L129,222.3L129,222.3z"/>
<path class="st0" d="M119.7,221.7c0.9-0.7,1.4-1.8,1.4-3c0.2-2.3-1.4-4.3-3.7-4.5c-0.2,0-0.4,0-0.6,0h-5.9v15h5.9
	c2.5,0,4.4-2,4.4-4.5c0,0,0,0,0,0C121.2,223.4,120.6,222.4,119.7,221.7z M113.9,217.2h2.7c0.8,0.1,1.4,0.9,1.3,1.7
	c-0.1,0.6-0.6,1.1-1.3,1.3h-2.7V217.2z M116.5,226.2h-2.7v-3h2.7c0.8,0,1.5,0.6,1.5,1.4c0,0,0,0,0,0.1
	C118.1,225.5,117.4,226.2,116.5,226.2C116.6,226.2,116.5,226.2,116.5,226.2L116.5,226.2z"/>
</svg>
